<svg xmlns="http://www.w3.org/2000/svg" width="24" height="24" viewBox="0 0 24 24" fill="none">
  <g clip-path="url(#clip0_522_2276)">
    <path fill-rule="evenodd" clip-rule="evenodd" d="M14.9585 7.40969C17.2471 9.80618 17.1596 13.6042 14.7631 15.8927C12.3666 18.1813 8.56865 18.0938 6.28008 15.6973C3.99152 13.3008 4.079 9.50285 6.47549 7.21429C8.87197 4.92572 12.67 5.01321 14.9585 7.40969ZM16.8248 16.6037C19.339 13.5224 19.2225 8.97881 16.4049 6.02842C13.3535 2.83311 8.28953 2.71646 5.09422 5.76788C1.89891 8.8193 1.78226 13.8833 4.83368 17.0786C7.65121 20.029 12.1846 20.3546 15.3784 17.985L17.4931 20.1994C17.8745 20.5988 18.5075 20.6134 18.9069 20.2319C19.3063 19.8505 19.3209 19.2175 18.9395 18.8181L16.8248 16.6037Z" fill="#B2B2B2"/>
  </g>
  <defs>
    <clipPath id="clip0_522_2276">
      <rect width="24" height="24" fill="white"/>
    </clipPath>
  </defs>
</svg>